<?xml version="1.0" encoding="iso-8859-1"?>
<!-- Generator: Adobe Illustrator 19.0.0, SVG Export Plug-In . SVG Version: 6.00 Build 0)  -->
<svg version="1.1" id="Layer_1" xmlns="http://www.w3.org/2000/svg" xmlns:xlink="http://www.w3.org/1999/xlink" x="0px" y="0px"
	 viewBox="0 0 494.923 494.923" style="enable-background:new 0 0 494.923 494.923;" xml:space="preserve">
<circle style="fill:#B5FF40;" cx="247.469" cy="276.606" r="88.978"/>
<path style="fill:#3EE02D;" d="M247.469,187.581c49.144,0,88.986,39.841,88.986,88.986s-39.841,88.978-88.986,88.978"/>
<path style="fill:#126889;" d="M247.469,385.237c-59.92,0-108.67-48.742-108.67-108.67s48.742-108.678,108.67-108.678
	s108.678,48.75,108.678,108.678S307.389,385.237,247.469,385.237z M247.469,207.273c-38.203,0-69.285,31.082-69.285,69.293
	c0,38.203,31.082,69.285,69.285,69.285c38.211,0,69.293-31.082,69.293-69.285S285.68,207.273,247.469,207.273z"/>
<circle style="fill:#FFC545;" cx="247.469" cy="72.854" r="53.169"/>
<path style="fill:#0F7CCE;" d="M247.469,145.715c-40.18,0-72.862-32.681-72.862-72.862C174.608,32.681,207.289,0,247.469,0
	c40.172,0,72.862,32.681,72.862,72.854C320.331,113.034,287.642,145.715,247.469,145.715z M247.469,39.385
	c-18.464,0-33.477,15.013-33.477,33.469c0,18.464,15.013,33.477,33.477,33.477s33.477-15.013,33.477-33.477
	C280.946,54.398,265.933,39.385,247.469,39.385z"/>
<circle style="fill:#FFC545;" cx="88.529" cy="422.061" r="53.169"/>
<path style="fill:#0F7CCE;" d="M88.529,494.923c-40.172,0-72.862-32.681-72.862-72.862c0-40.172,32.689-72.854,72.862-72.854
	s72.854,32.681,72.854,72.854C161.382,462.241,128.701,494.923,88.529,494.923z M88.529,388.592
	c-18.456,0-33.477,15.013-33.477,33.469c0,18.464,15.021,33.477,33.477,33.477s33.469-15.013,33.469-33.477
	C121.998,403.606,106.984,388.592,88.529,388.592z"/>
<circle style="fill:#FFC545;" cx="406.394" cy="422.061" r="53.169"/>
<g>
	<path style="fill:#0F7CCE;" d="M406.402,494.923c-40.18,0-72.869-32.681-72.869-72.862c0-40.172,32.689-72.854,72.869-72.854
		s72.854,32.681,72.854,72.854C479.256,462.241,446.574,494.923,406.402,494.923z M406.402,388.592
		c-18.464,0-33.485,15.013-33.485,33.469c0,18.464,15.021,33.477,33.485,33.477c18.456,0,33.469-15.013,33.469-33.477
		C439.871,403.606,424.858,388.592,406.402,388.592z"/>
	<circle style="fill:#0F7CCE;" cx="215.473" cy="276.527" r="8.373"/>
	<circle style="fill:#0F7CCE;" cx="247.469" cy="276.527" r="8.373"/>
	<circle style="fill:#0F7CCE;" cx="279.473" cy="276.527" r="8.365"/>
	<circle style="fill:#0F7CCE;" cx="247.477" cy="244.547" r="8.365"/>
	<circle style="fill:#0F7CCE;" cx="247.477" cy="276.527" r="8.365"/>
	<circle style="fill:#0F7CCE;" cx="247.477" cy="308.586" r="8.365"/>
</g>
<g>
</g>
<g>
</g>
<g>
</g>
<g>
</g>
<g>
</g>
<g>
</g>
<g>
</g>
<g>
</g>
<g>
</g>
<g>
</g>
<g>
</g>
<g>
</g>
<g>
</g>
<g>
</g>
<g>
</g>
</svg>
