<?xml version="1.0" encoding="iso-8859-1"?>
<!-- Generator: Adobe Illustrator 19.0.0, SVG Export Plug-In . SVG Version: 6.00 Build 0)  -->
<svg version="1.1" id="Layer_1" xmlns="http://www.w3.org/2000/svg" xmlns:xlink="http://www.w3.org/1999/xlink" x="0px" y="0px"
	 viewBox="0 0 512 512" style="enable-background:new 0 0 512 512;" xml:space="preserve">
<polygon style="fill:#FFECBA;" points="377.331,307.745 377.331,384 400.616,416.681 423.901,384 423.901,307.745 "/>
<rect x="377.333" y="384" style="fill:#FFF9E9;" width="46.57" height="119.83"/>
<polygon style="fill:#E7C05C;" points="455.09,150.179 423.901,340.426 414.108,340.426 410.404,128.392 "/>
<polygon style="fill:#0DCD9B;" points="478.369,8.17 467.617,73.728 416.657,117.03 445.688,8.17 "/>
<polygon style="fill:#FFD875;" points="432.191,150.179 414.108,340.426 377.331,340.426 346.142,150.179 389.167,117.499 "/>
<polygon style="fill:#12F8BC;" points="445.688,8.17 438.444,84.349 367.113,117.302 333.615,73.728 322.863,8.17 "/>
<path style="fill:#AB15A4;" d="M467.617,73.728l-12.528,76.451h-22.898l-19.108-39.092l25.361-26.738
	C451.015,82.661,452.442,73.728,467.617,73.728z"/>
<path style="fill:#D23ACB;" d="M438.444,84.349l-6.253,65.83h-86.049l-12.528-76.451c16.754,0,16.754,10.894,33.498,10.894
	c16.743,0,16.743-10.894,33.498-10.894c16.743,0,16.743,10.894,33.498,10.894C435.688,84.622,437.126,84.524,438.444,84.349z"/>
<polygon style="fill:#FFECBA;" points="88.102,307.745 88.102,384 111.387,416.681 134.672,384 134.672,307.745 "/>
<rect x="88.097" y="384" style="fill:#FFF9E9;" width="46.57" height="119.83"/>
<polygon style="fill:#E7C05C;" points="165.861,150.179 134.672,340.426 124.879,340.426 121.175,128.392 "/>
<polygon style="fill:#0DCD9B;" points="189.14,8.17 178.388,73.728 127.428,117.03 156.46,8.17 "/>
<polygon style="fill:#FFD875;" points="142.962,150.179 124.879,340.426 88.102,340.426 56.914,150.179 99.938,117.499 "/>
<polygon style="fill:#12F8BC;" points="156.46,8.17 149.215,84.349 77.884,117.302 44.386,73.728 33.634,8.17 "/>
<path style="fill:#AB15A4;" d="M178.388,73.728l-12.528,76.451h-22.898l-19.108-39.092l25.361-26.738
	C161.787,82.661,163.214,73.728,178.388,73.728z"/>
<path style="fill:#D23ACB;" d="M149.215,84.349l-6.253,65.83H56.914L44.386,73.728c16.754,0,16.754,10.894,33.498,10.894
	s16.743-10.894,33.498-10.894c16.743,0,16.743,10.894,33.498,10.894C146.459,84.622,147.897,84.524,149.215,84.349z"/>
<polygon style="fill:#FFECBA;" points="232.715,204.255 232.715,128 256,95.319 279.285,128 279.285,204.255 "/>
<rect x="232.709" y="8.17" style="fill:#FFF9E9;" width="46.57" height="119.83"/>
<polygon style="fill:#E7C05C;" points="310.474,361.821 279.285,171.574 269.492,171.574 265.788,383.608 "/>
<polygon style="fill:#0DCD9B;" points="333.753,503.83 323.001,438.272 272.041,394.97 301.072,503.83 "/>
<polygon style="fill:#FFD875;" points="287.575,361.821 269.492,171.574 232.715,171.574 201.526,361.821 244.551,394.501 "/>
<polygon style="fill:#12F8BC;" points="301.072,503.83 293.828,427.651 222.497,394.698 188.999,438.272 178.247,503.83 "/>
<path style="fill:#AB15A4;" d="M323.001,438.272l-12.528-76.451h-22.898l-19.108,39.092l25.361,26.738
	C306.399,429.339,307.826,438.272,323.001,438.272z"/>
<path style="fill:#D23ACB;" d="M293.828,427.651l-6.253-65.83h-86.049l-12.528,76.451c16.754,0,16.754-10.894,33.498-10.894
	s16.743,10.894,33.498,10.894c16.743,0,16.743-10.894,33.498-10.894C291.072,427.378,292.51,427.476,293.828,427.651z"/>
<path d="M195.367,2.881C193.815,1.053,191.538,0,189.14,0H33.634c-2.398,0-4.674,1.053-6.227,2.881s-2.223,4.244-1.836,6.611
	l54.36,331.598V503.83c0,4.512,3.658,8.17,8.17,8.17h46.57c4.512,0,8.17-3.658,8.17-8.17V341.091l54.36-331.6
	C197.591,7.126,196.92,4.708,195.367,2.881z M179.521,16.34l-8.167,49.821c-6.5,1.18-10.666,3.882-14.176,6.165
	c-3.82,2.484-6.343,4.125-12.296,4.125c-5.952,0-8.475-1.642-12.296-4.125c-4.636-3.015-10.407-6.768-21.204-6.768
	c-10.798,0-16.567,3.753-21.202,6.768c-3.819,2.485-6.342,4.125-12.292,4.125c-5.951,0-8.474-1.642-12.293-4.125
	c-3.51-2.283-7.675-4.985-14.174-6.165L43.253,16.34H179.521z M66.533,158.35H78.7c4.512,0,8.17-3.658,8.17-8.17
	s-3.658-8.17-8.17-8.17H63.854l-9.411-57.407c0.72,0.435,1.452,0.909,2.242,1.422c4.636,3.015,10.406,6.768,21.203,6.768
	c10.797,0,16.567-3.753,21.202-6.768c3.819-2.485,6.342-4.125,12.293-4.125c5.952,0,8.475,1.642,12.296,4.125
	c4.636,3.015,10.407,6.768,21.204,6.768s16.568-3.753,21.204-6.768c0.79-0.513,1.524-0.989,2.244-1.423l-9.411,57.408h-47.539
	c-4.512,0-8.17,3.658-8.17,8.17s3.658,8.17,8.17,8.17h44.86l-28.511,173.906h-32.69L66.533,158.35z M96.272,348.596h30.23v27.234
	h-30.23V348.596z M96.272,495.66V392.17h30.23V495.66H96.272z"/>
<path d="M484.593,2.881C483.04,1.053,480.764,0,478.366,0H322.86c-2.398,0-4.674,1.053-6.227,2.881s-2.223,4.244-1.836,6.611
	l54.36,331.598V503.83c0,4.512,3.658,8.17,8.17,8.17h46.57c4.512,0,8.17-3.658,8.17-8.17V341.091l54.36-331.6
	C486.816,7.126,486.145,4.708,484.593,2.881z M468.747,16.34l-8.167,49.821c-6.5,1.18-10.666,3.882-14.176,6.165
	c-3.82,2.484-6.343,4.125-12.296,4.125c-5.952,0-8.475-1.642-12.296-4.125c-4.636-3.015-10.407-6.768-21.204-6.768
	s-16.567,3.753-21.202,6.768c-3.819,2.485-6.342,4.125-12.292,4.125c-5.951,0-8.474-1.642-12.293-4.125
	c-3.51-2.283-7.675-4.985-14.174-6.165l-8.168-49.821H468.747z M448.146,142.009H353.08l-9.411-57.407
	c0.72,0.435,1.452,0.909,2.242,1.422c4.636,3.015,10.406,6.768,21.203,6.768c10.797,0,16.567-3.753,21.202-6.768
	c3.819-2.485,6.342-4.125,12.293-4.125c5.952,0,8.475,1.642,12.296,4.125c4.636,3.015,10.407,6.768,21.204,6.768
	s16.568-3.753,21.204-6.768c0.79-0.513,1.524-0.989,2.244-1.423L448.146,142.009z M355.758,158.35h89.708l-28.509,173.906h-32.69
	L355.758,158.35z M385.498,348.596h30.23v27.234h-30.23V348.596z M385.498,495.66V392.17h30.23V495.66H385.498z"/>
<path d="M287.455,170.909V8.17c0-4.512-3.658-8.17-8.17-8.17h-46.57c-4.512,0-8.17,3.658-8.17,8.17v162.739l-54.36,331.598
	c-0.388,2.366,0.283,4.783,1.836,6.611c1.552,1.828,3.829,2.881,6.227,2.881h155.506c2.398,0,4.674-1.053,6.227-2.881
	c1.552-1.828,2.223-4.244,1.836-6.611L287.455,170.909z M300.854,353.65h-44.859c-4.512,0-8.17,3.658-8.17,8.17
	c0,4.512,3.658,8.17,8.17,8.17h47.538l9.411,57.407c-0.72-0.435-1.453-0.909-2.242-1.422c-4.636-3.015-10.406-6.768-21.203-6.768
	c-10.797,0-16.567,3.753-21.202,6.768c-3.819,2.485-6.342,4.125-12.293,4.125c-5.952,0-8.475-1.642-12.296-4.125
	c-4.636-3.015-10.407-6.768-21.204-6.768s-16.567,3.753-21.203,6.768c-0.79,0.513-1.524,0.989-2.244,1.423l9.411-57.408h14.847
	c4.512,0,8.17-3.658,8.17-8.17c0-4.512-3.658-8.17-8.17-8.17h-12.168l28.51-173.906h32.69L300.854,353.65z M271.115,163.404h-30.23
	V136.17h30.23V163.404z M271.115,16.34V119.83h-30.23V16.34H271.115z M187.866,495.66l8.167-49.821
	c6.5-1.18,10.666-3.882,14.176-6.165c3.82-2.484,6.343-4.125,12.296-4.125c5.952,0,8.475,1.642,12.296,4.125
	c4.636,3.015,10.407,6.768,21.204,6.768c10.798,0,16.567-3.753,21.202-6.768c3.819-2.485,6.342-4.125,12.292-4.125
	c5.951,0,8.474,1.642,12.293,4.125c3.51,2.283,7.675,4.985,14.175,6.165l8.167,49.821H187.866z"/>
<g>
</g>
<g>
</g>
<g>
</g>
<g>
</g>
<g>
</g>
<g>
</g>
<g>
</g>
<g>
</g>
<g>
</g>
<g>
</g>
<g>
</g>
<g>
</g>
<g>
</g>
<g>
</g>
<g>
</g>
</svg>
