<?xml version="1.0" encoding="iso-8859-1"?>
<!-- Generator: Adobe Illustrator 19.0.0, SVG Export Plug-In . SVG Version: 6.00 Build 0)  -->
<svg xmlns="http://www.w3.org/2000/svg" xmlns:xlink="http://www.w3.org/1999/xlink" version="1.1" id="Capa_1" x="0px" y="0px" viewBox="0 0 455 455" style="enable-background:new 0 0 455 455;" xml:space="preserve" width="512" height="512">
<g>
	<polygon style="fill:#F2EBD9;" points="55,0 55,455 305,455 325,380 400,360 400,0  "/>
	<polygon style="fill:#FFCC75;" points="305,360 305,455 400,360  "/>
	<path style="fill:#082947;" d="M175.809,232.544c-9.955-1.08-13.309-1.443-13.309-12.544c0-4.143-3.357-7.5-7.5-7.5   s-7.5,3.357-7.5,7.5v80.243c-3.753-1.749-8-2.743-12.5-2.743c-15.163,0-27.5,11.215-27.5,25s12.337,25,27.5,25s27.5-11.215,27.5-25   v-77.301c4.058,1.429,8.271,1.886,11.691,2.257c9.955,1.08,13.309,1.443,13.309,12.544c0,4.143,3.357,7.5,7.5,7.5   s7.5-3.357,7.5-7.5C202.5,235.438,185.792,233.626,175.809,232.544z"/>
	<path style="fill:#6DA8D6;" d="M125,287.5h-10c-4.143,0-7.5-3.357-7.5-7.5s3.357-7.5,7.5-7.5h10c4.143,0,7.5,3.357,7.5,7.5   S129.143,287.5,125,287.5z"/>
	<path style="fill:#6DA8D6;" d="M340,287.5H185c-4.143,0-7.5-3.357-7.5-7.5s3.357-7.5,7.5-7.5h155c4.143,0,7.5,3.357,7.5,7.5   S344.143,287.5,340,287.5z"/>
	<path style="fill:#6DA8D6;" d="M340,257.5H223.47c-4.143,0-7.5-3.357-7.5-7.5s3.357-7.5,7.5-7.5H340c4.143,0,7.5,3.357,7.5,7.5   S344.143,257.5,340,257.5z"/>
	<path style="fill:#6DA8D6;" d="M340,317.5H185c-4.143,0-7.5-3.357-7.5-7.5s3.357-7.5,7.5-7.5h155c4.143,0,7.5,3.357,7.5,7.5   S344.143,317.5,340,317.5z"/>
	<path style="fill:#6DA8D6;" d="M125,257.5h-10c-4.143,0-7.5-3.357-7.5-7.5s3.357-7.5,7.5-7.5h10c4.143,0,7.5,3.357,7.5,7.5   S129.143,257.5,125,257.5z"/>
	<path style="fill:#082947;" d="M320.809,92.544C310.854,91.464,307.5,91.101,307.5,80c0-4.143-3.357-7.5-7.5-7.5   s-7.5,3.357-7.5,7.5v80.243c-3.753-1.749-8-2.743-12.5-2.743c-15.163,0-27.5,11.215-27.5,25s12.337,25,27.5,25s27.5-11.215,27.5-25   v-77.301c4.058,1.429,8.271,1.886,11.691,2.257c9.955,1.08,13.309,1.443,13.309,12.544c0,4.143,3.357,7.5,7.5,7.5   s7.5-3.357,7.5-7.5C347.5,95.438,330.792,93.626,320.809,92.544z"/>
	<path style="fill:#6DA8D6;" d="M270,147.5H115c-4.143,0-7.5-3.357-7.5-7.5s3.357-7.5,7.5-7.5h155c4.143,0,7.5,3.357,7.5,7.5   S274.143,147.5,270,147.5z"/>
	<path style="fill:#6DA8D6;" d="M340,147.5h-10c-4.143,0-7.5-3.357-7.5-7.5s3.357-7.5,7.5-7.5h10c4.143,0,7.5,3.357,7.5,7.5   S344.143,147.5,340,147.5z"/>
	<path style="fill:#6DA8D6;" d="M236.008,177.5H115c-4.143,0-7.5-3.357-7.5-7.5s3.357-7.5,7.5-7.5h121.008   c4.143,0,7.5,3.357,7.5,7.5S240.15,177.5,236.008,177.5z"/>
	<path style="fill:#6DA8D6;" d="M340,177.5h-10c-4.143,0-7.5-3.357-7.5-7.5s3.357-7.5,7.5-7.5h10c4.143,0,7.5,3.357,7.5,7.5   S344.143,177.5,340,177.5z"/>
	<path style="fill:#6DA8D6;" d="M270,117.5H115c-4.143,0-7.5-3.357-7.5-7.5s3.357-7.5,7.5-7.5h155c4.143,0,7.5,3.357,7.5,7.5   S274.143,117.5,270,117.5z"/>
</g>















</svg>
